<svg width="16" height="11" viewBox="0 0 16 11" fill="none" xmlns="http://www.w3.org/2000/svg">
<path d="M14.9828 2.90078C14.8906 1.98038 14.6907 0.96394 13.9559 0.42912C13.3859 0.0145296 12.6375 -0.00067042 11.939 1.95796e-05C10.4619 0.00139958 8.98469 0.00278949 7.50759 0.00416949C6.08699 0.00554949 4.66637 0.00692939 3.24576 0.00830939C2.65222 0.00830939 2.07549 -0.0386706 1.52434 0.224589C1.05058 0.451239 0.680441 0.881719 0.458371 1.36058C0.148811 2.02738 0.0835411 2.78193 0.0465311 3.51918C-0.0221089 4.86108 -0.0147092 6.20718 0.0680708 7.54768C0.127961 8.52678 0.280711 9.60818 1.0176 10.2322C1.67104 10.7849 2.59299 10.8119 3.43957 10.8126C6.12869 10.8147 8.81779 10.8167 11.507 10.8195C11.8515 10.8195 12.2116 10.8133 12.5628 10.7739C13.2546 10.6972 13.9135 10.494 14.3576 9.96818C14.8058 9.43818 14.9209 8.69958 14.9895 8.00098C15.1551 6.30668 15.153 4.59438 14.9828 2.90078ZM5.95239 7.78608V3.03345L9.96119 5.40978L5.95239 7.78608Z" fill="#111111"/>
</svg>
